<svg xmlns="http://www.w3.org/2000/svg" width="29.019" height="29.29" viewBox="0 0 29.019 29.29">
  <path id="Icon_awesome-phone-alt" data-name="Icon awesome-phone-alt" d="M27.2,19.977l-6.125-2.65a1.3,1.3,0,0,0-1.531.381l-2.713,3.346a20.369,20.369,0,0,1-9.69-9.784l3.314-2.739a1.33,1.33,0,0,0,.377-1.546L8.209.8A1.318,1.318,0,0,0,6.7.034L1.017,1.359A1.323,1.323,0,0,0,0,2.65,25.5,25.5,0,0,0,25.375,28.27a1.315,1.315,0,0,0,1.28-1.027L27.968,21.5a1.344,1.344,0,0,0-.766-1.524Z" transform="translate(0.5 0.519)" fill="#15829d" stroke="#15829d" stroke-width="1"/>
</svg>
