<svg xmlns="http://www.w3.org/2000/svg" width="28.5" height="27.294" viewBox="0 0 28.5 27.294">
  <path id="Icon_awesome-facebook-square" data-name="Icon awesome-facebook-square" d="M24.554,2.25H2.946A2.884,2.884,0,0,0,0,5.067v20.66a2.884,2.884,0,0,0,2.946,2.817h8.425V19.6H7.5V15.4h3.867V12.19c0-3.648,2.271-5.663,5.75-5.663a24.471,24.471,0,0,1,3.408.284v3.58H18.61a2.153,2.153,0,0,0-2.481,2.273V15.4h4.222L19.675,19.6H16.129v8.939h8.425A2.884,2.884,0,0,0,27.5,25.727V5.067A2.884,2.884,0,0,0,24.554,2.25Z" transform="translate(0.5 -1.75)" fill="#15829d" stroke="#15829d" stroke-width="1"/>
</svg>
